<?xml version="1.0" encoding="UTF-8" standalone="no"?><!DOCTYPE svg PUBLIC "-//W3C//DTD SVG 1.1//EN" "http://www.w3.org/Graphics/SVG/1.1/DTD/svg11.dtd"><svg width="100%" height="100%" viewBox="0 0 800 800" version="1.1" xmlns="http://www.w3.org/2000/svg" xmlns:xlink="http://www.w3.org/1999/xlink" xml:space="preserve" xmlns:serif="http://www.serif.com/" style="fill-rule:evenodd;clip-rule:evenodd;stroke-linejoin:round;stroke-miterlimit:2;"><g><path d="M185.706,464.807c-12.31,-0 -23.401,-2.956 -33.273,-8.867c-9.873,-5.912 -17.612,-13.986 -23.218,-24.224c-5.607,-10.238 -8.41,-21.512 -8.41,-33.822c-0,-11.822 2.833,-22.67 8.501,-32.542c5.667,-9.873 13.559,-17.673 23.675,-23.401c10.116,-5.729 21.634,-8.593 34.554,-8.593c7.069,0 13.924,0.792 20.567,2.377c6.642,1.584 12.645,3.839 18.008,6.764l-12.066,28.337c-8.288,-3.412 -16.028,-5.119 -23.219,-5.119c-9.385,0 -16.636,3.017 -21.755,9.05c-5.119,6.033 -7.679,13.925 -7.679,23.675c0,6.338 1.158,12.036 3.474,17.094c2.315,5.058 5.576,9.05 9.781,11.975c4.204,2.925 8.988,4.388 14.351,4.388c2.925,-0 5.363,-0.244 7.313,-0.732l-0,-29.434l31.628,-3.656l-0,57.223c-13.773,6.338 -27.85,9.507 -42.232,9.507Z" style="fill:#6cd1ef;fill-rule:nonzero;"/><path d="M308.745,464.807c-12.066,-0 -22.822,-2.316 -32.268,-6.948c-9.446,-4.631 -16.789,-11.121 -22.03,-19.47c-5.241,-8.349 -7.861,-17.886 -7.861,-28.612l-0,-73.677l41.317,0l0,73.677c0,7.313 1.768,12.798 5.302,16.454c3.535,3.657 8.715,5.485 15.54,5.485c6.825,-0 12.005,-1.859 15.54,-5.576c3.534,-3.718 5.302,-9.172 5.302,-16.363l-0,-73.677l41.317,0l0,73.677c0,10.726 -2.62,20.263 -7.861,28.612c-5.241,8.349 -12.584,14.839 -22.03,19.47c-9.446,4.632 -20.202,6.948 -32.268,6.948Z" style="fill:#6cd1ef;fill-rule:nonzero;"/><path d="M393.574,336.1l38.027,0l31.445,28.127l30.714,-28.127l38.027,0l-0,125.781l-38.027,0l0,-67.095l-30.714,20.476l-31.445,-20.476l-0,67.095l-38.027,0l0,-125.781Z" style="fill:#6cd1ef;fill-rule:nonzero;"/><path d="M579.503,336.1l55.578,0l36.381,125.781l-42.963,0l-4.753,-24.132l-32.542,-0l-5.302,24.132l-41.135,0l34.736,-125.781Zm39.855,79.162l-11.883,-55.029l-12.432,55.029l24.315,-0Z" style="fill:#6cd1ef;fill-rule:nonzero;"/></g><path d="M507.402,301.308c-5.522,7.079 -44.803,47.157 -44.803,47.157l-5.727,-5.546c-0,0 -30.359,-29.464 -37.77,-39.096c-4.998,-6.497 -8.176,-14.41 -8.176,-23.192c-0,-20.648 15.819,-38.334 36.423,-36.991c20.253,1.32 29.141,20.348 29.141,36.991l0,7.972l-15.944,-0l0,-7.972c0,-8.99 -3.294,-20.368 -14.233,-21.081c-11.383,-0.742 -19.443,9.674 -19.443,21.081c-0,5.115 1.957,9.685 4.868,13.469c5.924,7.699 27.207,28.589 34.074,35.276c9.282,-9.348 27.595,-27.985 32.93,-34.824c2.478,-3.177 3.963,-7.474 3.963,-12.185c-0,-9.228 -5.631,-17.176 -13.269,-17.176l-5.492,-0l0,-10.984l5.492,0c13.078,0 24.252,12.359 24.252,28.16c0,7.337 -2.426,13.992 -6.286,18.941Z" style="fill:#6cd1ef;"/><text x="315.825px" y="539.035px" style="font-family:'PaytoneOne-Regular', 'Paytone One';font-size:80.329px;fill:#6cd1ef;">Gi<tspan x="397.439px " y="539.035px ">f</tspan>ts</text></svg>